<svg id="svg" version="1.1" width="400" height="160" viewBox="0 0 400 160" xmlns="http://www.w3.org/2000/svg" xmlns:xlink="http://www.w3.org/1999/xlink" ><g id="svgg"><path id="path0" d="M340.000 15.341 C 329.412 16.433,316.740 20.929,307.990 26.696 C 306.941 27.387,305.843 28.076,305.550 28.226 C 304.898 28.561,299.473 32.639,298.053 33.862 C 295.310 36.224,292.663 38.716,292.338 39.243 C 292.139 39.564,291.766 39.977,291.508 40.161 C 291.061 40.479,288.167 43.700,288.167 43.879 C 288.167 43.926,287.960 44.186,287.708 44.456 C 286.301 45.962,281.695 52.672,280.584 54.833 C 280.325 55.337,280.050 55.862,279.973 56.000 C 274.164 66.326,271.361 78.651,272.002 91.058 C 272.105 93.061,272.166 94.720,272.137 94.746 C 272.107 94.771,268.746 95.101,264.667 95.478 C 260.587 95.855,252.037 96.654,245.667 97.253 C 239.296 97.852,233.940 98.340,233.766 98.338 C 233.492 98.334,233.441 91.630,233.714 91.404 C 233.734 91.387,239.150 90.943,245.750 90.416 C 253.264 89.816,257.827 89.387,257.956 89.267 C 258.149 89.088,258.725 84.573,260.600 68.528 C 261.118 64.095,261.176 63.273,260.980 63.088 C 260.791 62.910,259.174 62.984,251.833 63.510 C 246.929 63.861,241.454 64.231,239.667 64.331 C 237.879 64.431,236.023 64.558,235.542 64.613 L 234.667 64.713 234.667 61.768 C 234.667 59.563,234.719 58.804,234.875 58.748 C 234.990 58.707,243.210 58.304,253.143 57.852 C 264.095 57.354,271.270 56.964,271.373 56.860 C 271.467 56.766,271.649 55.691,271.778 54.470 C 272.080 51.604,273.562 39.538,274.926 28.833 C 276.222 18.668,276.198 19.169,275.375 19.160 C 274.441 19.149,263.221 19.955,233.500 22.167 C 218.787 23.262,204.014 24.350,200.670 24.584 C 197.325 24.819,194.515 25.085,194.424 25.176 C 194.259 25.341,195.234 139.789,195.401 139.956 C 195.607 140.162,201.664 139.910,216.500 139.077 C 225.438 138.575,241.375 137.678,251.917 137.085 C 262.458 136.491,271.828 135.985,272.738 135.961 C 274.347 135.918,274.396 135.905,274.504 135.500 C 274.564 135.271,274.713 129.140,274.835 121.875 C 274.956 114.610,275.101 108.667,275.156 108.667 C 275.211 108.667,275.628 109.771,276.082 111.121 C 277.202 114.451,281.616 123.341,282.476 124.000 C 282.639 124.124,283.460 125.243,284.083 126.190 C 284.936 127.484,288.571 131.270,290.382 132.750 C 293.036 134.918,294.229 135.823,294.583 135.935 C 294.767 135.993,295.378 136.368,295.942 136.767 C 297.361 137.772,300.830 139.626,302.333 140.182 C 303.021 140.437,304.258 140.907,305.083 141.226 C 316.282 145.567,332.667 145.518,346.000 141.104 C 347.238 140.694,348.475 140.284,348.750 140.193 C 349.025 140.102,349.550 139.938,349.917 139.828 C 350.892 139.535,355.217 137.540,356.667 136.714 C 357.354 136.323,358.029 135.996,358.167 135.988 C 358.304 135.980,358.736 135.773,359.127 135.529 C 362.162 133.626,363.633 132.647,363.903 132.349 C 364.076 132.157,364.304 132.000,364.410 132.000 C 364.672 132.000,367.677 129.592,368.058 129.077 C 368.227 128.848,368.693 128.435,369.094 128.159 C 369.495 127.884,370.362 127.041,371.021 126.287 C 371.681 125.533,372.807 124.279,373.524 123.500 C 374.242 122.721,375.205 121.596,375.666 121.000 C 377.767 118.283,379.800 115.547,380.002 115.167 C 380.123 114.938,380.892 113.737,381.711 112.500 C 383.211 110.233,386.672 103.471,387.555 101.083 C 391.030 91.684,391.876 88.349,392.946 79.833 C 393.303 76.991,393.364 67.034,393.040 64.333 C 392.142 56.828,390.395 49.475,388.209 44.000 C 388.117 43.771,387.949 43.283,387.836 42.917 C 387.500 41.835,385.209 37.050,384.580 36.116 C 384.261 35.642,384.000 35.172,384.000 35.072 C 384.000 34.782,382.750 33.074,381.502 31.657 C 380.873 30.943,380.230 30.165,380.075 29.927 C 379.594 29.193,373.931 24.167,373.585 24.167 C 373.520 24.167,372.894 23.764,372.192 23.271 C 370.883 22.352,367.133 20.167,366.865 20.167 C 366.783 20.167,365.811 19.756,364.706 19.254 C 357.771 16.106,347.837 14.532,340.000 15.341 M348.583 15.671 C 365.427 17.243,379.436 26.028,385.575 38.868 C 399.633 68.275,393.149 103.903,369.507 127.150 C 353.862 142.535,324.695 148.496,304.250 140.486 C 290.010 134.908,281.388 125.268,275.573 108.425 L 274.712 105.933 274.600 112.008 C 274.334 126.442,274.147 135.408,274.111 135.444 C 274.090 135.465,263.163 136.085,249.828 136.821 C 236.493 137.557,224.196 138.235,222.500 138.329 C 220.804 138.423,217.917 138.574,216.083 138.665 C 209.518 138.989,202.705 139.346,200.083 139.504 C 198.617 139.592,197.034 139.664,196.567 139.665 L 195.716 139.667 195.608 130.792 C 195.345 109.306,194.629 25.649,194.707 25.571 C 194.754 25.524,195.721 25.412,196.855 25.323 C 204.364 24.734,244.068 21.763,249.000 21.421 C 251.063 21.278,257.834 20.778,264.048 20.309 C 270.262 19.841,275.394 19.505,275.452 19.563 C 275.632 19.744,271.200 56.355,270.970 56.585 C 270.919 56.636,264.249 56.974,256.147 57.335 C 234.962 58.280,234.474 58.303,234.425 58.362 C 234.400 58.392,234.332 59.944,234.275 61.811 L 234.170 65.206 235.543 65.099 C 237.512 64.945,254.561 63.701,257.873 63.469 C 259.408 63.362,260.700 63.311,260.744 63.355 C 260.789 63.400,260.453 66.469,259.999 70.176 C 259.545 73.884,258.912 79.204,258.593 82.000 C 258.275 84.796,257.963 87.516,257.900 88.044 C 257.806 88.841,257.727 89.018,257.435 89.077 C 257.067 89.152,241.500 90.359,236.546 90.696 C 234.967 90.804,233.598 90.940,233.503 90.998 C 233.356 91.089,232.933 98.655,233.067 98.790 C 233.092 98.814,235.881 98.575,239.265 98.257 C 242.648 97.939,246.729 97.563,248.333 97.421 C 252.203 97.078,272.574 95.130,272.616 95.098 C 272.634 95.085,272.573 94.326,272.481 93.412 C 272.069 89.330,272.289 82.844,273.006 77.905 C 277.600 46.261,307.620 18.824,341.167 15.609 C 342.543 15.477,346.894 15.514,348.583 15.671 M82.500 16.841 C 76.170 17.431,44.543 20.157,41.835 20.347 C 35.591 20.783,8.325 23.275,8.181 23.423 C 7.920 23.691,6.905 59.838,7.153 59.992 C 7.488 60.198,10.124 60.004,18.333 59.169 C 22.596 58.735,26.116 58.409,26.157 58.444 C 26.197 58.479,25.792 74.425,25.258 93.879 C 24.723 113.333,24.249 132.081,24.205 135.542 L 24.124 141.833 24.776 141.833 C 25.134 141.833,27.075 141.617,29.089 141.352 C 31.102 141.088,34.475 140.669,36.583 140.423 C 41.322 139.869,57.995 137.812,62.805 137.187 C 65.305 136.863,66.405 136.655,66.511 136.488 C 66.600 136.348,66.663 119.402,66.664 95.292 C 66.666 72.765,66.685 54.330,66.708 54.325 C 66.731 54.320,70.594 53.845,75.293 53.268 C 79.991 52.692,83.890 52.165,83.957 52.098 C 84.025 52.031,84.497 48.288,85.008 43.780 C 85.875 36.126,85.944 35.677,86.041 37.000 C 86.181 38.894,88.116 79.422,88.329 84.917 C 88.703 94.550,91.038 140.095,91.166 140.250 C 91.257 140.359,93.081 140.377,96.444 140.303 C 99.271 140.241,107.503 140.112,114.737 140.018 C 125.143 139.883,127.936 139.802,128.108 139.630 C 128.273 139.465,128.509 135.393,129.087 122.754 C 129.506 113.592,129.864 106.083,129.882 106.068 C 129.937 106.022,143.728 103.993,143.958 103.997 C 144.298 104.002,144.219 105.954,143.263 121.333 C 142.770 129.262,142.401 135.806,142.443 135.875 C 142.619 136.161,145.064 135.905,160.313 134.000 C 169.118 132.900,176.511 132.000,176.741 132.000 C 177.040 132.000,177.184 131.892,177.244 131.625 C 177.399 130.929,180.000 106.590,180.000 105.833 C 180.000 105.421,180.446 101.033,180.990 96.083 C 182.395 83.299,183.943 68.611,184.143 66.167 C 184.237 65.021,185.107 56.846,186.076 48.000 C 187.045 39.154,187.913 30.867,188.005 29.583 C 188.097 28.300,188.388 25.304,188.652 22.927 C 189.216 17.844,189.267 18.167,187.899 18.167 C 186.517 18.167,146.627 20.151,146.555 20.223 C 146.524 20.253,146.090 31.703,145.589 45.666 C 145.089 59.630,144.620 71.106,144.548 71.169 C 144.384 71.312,124.182 72.737,124.059 72.614 C 124.030 72.585,124.378 68.816,124.832 64.239 C 127.135 41.043,127.670 35.559,127.837 33.417 C 127.938 32.133,128.265 28.496,128.565 25.333 C 128.864 22.171,129.077 19.490,129.037 19.375 C 128.911 19.014,127.909 19.096,102.105 21.597 C 94.050 22.377,87.439 22.993,87.412 22.966 C 87.386 22.939,87.515 21.584,87.699 19.954 C 87.882 18.325,87.990 16.881,87.938 16.746 C 87.816 16.427,86.746 16.445,82.500 16.841 M87.500 17.125 C 87.499 17.194,87.352 18.634,87.172 20.326 C 86.993 22.017,86.862 23.412,86.881 23.426 C 86.901 23.440,90.967 23.058,95.917 22.578 C 100.867 22.098,106.304 21.583,108.000 21.434 C 109.696 21.285,115.004 20.778,119.797 20.309 C 124.589 19.839,128.558 19.503,128.617 19.562 C 128.676 19.621,128.410 22.875,128.025 26.793 C 127.640 30.711,126.990 37.592,126.580 42.083 C 126.170 46.575,125.499 53.663,125.090 57.833 C 123.714 71.859,123.610 72.999,123.707 73.096 C 123.793 73.182,126.400 72.999,141.417 71.856 L 145.083 71.577 145.192 69.247 C 145.252 67.965,145.385 64.217,145.487 60.917 C 145.588 57.617,145.745 52.854,145.835 50.333 C 145.924 47.813,146.192 40.087,146.430 33.167 C 146.668 26.246,146.881 20.564,146.904 20.541 C 147.008 20.436,188.532 18.477,188.628 18.572 C 188.687 18.631,188.453 21.321,188.108 24.548 C 187.763 27.776,187.113 34.054,186.663 38.500 C 186.214 42.946,185.246 52.171,184.513 59.000 C 183.780 65.829,182.948 73.742,182.666 76.583 C 182.383 79.425,181.447 88.350,180.585 96.417 C 179.724 104.483,178.898 112.321,178.750 113.833 C 178.602 115.346,178.181 119.433,177.814 122.917 C 177.447 126.400,177.103 129.758,177.049 130.378 C 176.965 131.348,176.902 131.517,176.601 131.583 C 176.408 131.626,172.575 132.110,168.083 132.659 C 155.818 134.159,154.735 134.289,150.583 134.752 C 148.475 134.988,145.895 135.291,144.849 135.426 C 143.804 135.561,142.908 135.630,142.857 135.579 C 142.807 135.529,143.200 128.322,143.732 119.565 C 144.263 110.807,144.666 103.610,144.626 103.571 C 144.558 103.503,129.634 105.652,129.536 105.745 C 129.497 105.781,128.002 138.172,128.000 139.016 C 128.000 139.250,127.520 139.296,124.125 139.388 C 116.109 139.606,91.504 140.059,91.442 139.989 C 91.406 139.949,91.254 137.367,91.103 134.250 C 90.261 116.889,89.813 107.465,89.586 102.333 C 89.152 92.532,89.009 89.459,88.413 77.250 C 87.743 63.536,86.176 31.574,86.149 31.083 C 86.139 30.900,85.593 35.474,84.936 41.248 L 83.741 51.745 83.329 51.873 C 83.102 51.943,79.354 52.415,75.000 52.922 C 70.646 53.429,66.877 53.885,66.625 53.935 L 66.167 54.026 66.167 95.177 L 66.167 136.327 65.792 136.415 C 65.473 136.491,50.839 138.302,46.250 138.834 C 45.425 138.929,40.226 139.575,34.696 140.269 C 29.167 140.964,24.604 141.493,24.557 141.446 C 24.510 141.399,24.628 135.448,24.819 128.222 C 25.183 114.424,25.393 106.196,25.667 95.000 C 25.894 85.738,26.314 69.493,26.489 63.250 C 26.569 60.408,26.607 58.055,26.573 58.020 C 26.511 57.955,18.079 58.716,11.167 59.409 C 9.104 59.616,7.394 59.768,7.367 59.746 C 7.296 59.689,8.357 23.764,8.432 23.684 C 8.517 23.592,15.751 22.963,35.500 21.328 C 36.646 21.233,45.758 20.449,55.750 19.586 C 65.742 18.723,75.379 17.898,77.167 17.752 C 78.954 17.607,81.579 17.387,83.000 17.264 C 86.058 16.998,87.500 16.953,87.500 17.125 M334.272 56.166 C 319.383 58.032,308.106 72.568,308.091 89.917 C 308.079 102.942,313.490 109.594,324.083 109.578 C 327.803 109.572,328.046 109.537,331.083 108.552 C 345.484 103.880,356.217 82.654,351.546 68.083 C 348.773 59.432,342.538 55.131,334.272 56.166 M339.669 56.748 C 350.072 58.835,355.044 71.774,350.643 85.303 C 349.231 89.643,347.799 92.569,344.552 97.750 C 343.621 99.237,338.968 104.167,338.497 104.167 C 338.390 104.167,337.728 104.585,337.026 105.097 C 335.717 106.052,331.608 108.166,331.057 108.168 C 330.888 108.169,330.262 108.320,329.667 108.505 C 322.741 110.654,314.721 108.327,311.841 103.333 C 309.204 98.760,308.576 96.596,308.385 91.417 C 308.166 85.479,309.262 79.618,311.419 75.186 C 311.738 74.529,312.000 73.916,312.000 73.823 C 312.000 73.360,314.158 69.869,315.638 67.938 C 321.907 59.759,331.776 55.164,339.669 56.748 " stroke="none" fill="#0e0e0e" fill-rule="evenodd"></path><path id="path1" d="M339.083 15.918 C 328.209 17.180,315.578 22.085,305.500 28.958 C 283.836 43.734,271.553 66.338,272.422 89.833 C 272.495 91.804,272.561 93.829,272.569 94.333 L 272.583 95.250 270.250 95.462 C 268.967 95.579,262.479 96.196,255.833 96.835 C 234.938 98.843,233.106 99.007,233.001 98.877 C 232.901 98.753,233.122 90.989,233.229 90.882 C 233.282 90.829,246.328 89.781,253.583 89.247 C 255.600 89.098,257.334 88.951,257.436 88.919 C 257.538 88.887,257.707 88.161,257.812 87.305 C 257.916 86.450,258.452 82.037,259.003 77.500 C 259.554 72.962,260.154 68.051,260.336 66.586 C 260.771 63.080,260.805 63.362,259.958 63.438 C 259.569 63.474,256.025 63.729,252.083 64.006 C 248.142 64.283,242.517 64.688,239.583 64.905 C 236.650 65.123,234.197 65.268,234.133 65.229 C 234.030 65.166,234.148 58.329,234.253 58.200 C 234.300 58.144,240.651 57.848,252.917 57.330 C 269.337 56.636,270.822 56.567,270.896 56.492 C 270.970 56.419,272.390 45.127,273.253 37.750 C 273.764 33.381,275.293 21.005,275.428 20.144 L 275.523 19.538 274.803 19.606 C 274.407 19.644,269.133 20.046,263.083 20.501 C 257.033 20.956,249.079 21.555,245.407 21.832 C 241.734 22.110,233.634 22.705,227.407 23.153 C 221.179 23.602,211.302 24.332,205.458 24.776 L 194.833 25.583 194.836 28.833 C 194.837 30.621,194.947 44.533,195.080 59.750 C 195.213 74.967,195.398 96.679,195.491 108.000 C 195.671 129.943,195.786 139.508,195.868 139.591 C 195.897 139.619,198.431 139.499,201.501 139.325 C 204.572 139.151,213.308 138.671,220.917 138.259 C 228.525 137.846,236.137 137.431,237.833 137.337 C 239.529 137.242,244.629 136.972,249.167 136.736 C 264.146 135.957,273.819 135.403,273.904 135.318 C 273.983 135.240,274.171 126.921,274.438 111.790 C 274.500 108.237,274.591 105.368,274.638 105.416 C 274.686 105.463,275.155 106.796,275.680 108.376 C 281.920 127.142,293.574 138.343,311.167 142.483 C 331.043 147.160,356.368 140.359,369.723 126.757 C 393.500 102.540,399.568 67.820,385.163 38.417 C 377.752 23.289,358.128 13.708,339.083 15.918 M82.500 17.435 C 80.162 17.650,72.813 18.278,66.167 18.832 C 59.521 19.386,48.908 20.290,42.583 20.841 C 28.132 22.099,9.459 23.667,8.932 23.667 C 8.392 23.667,8.470 21.869,7.559 55.567 L 7.447 59.718 8.098 59.621 C 9.602 59.398,26.653 57.765,26.720 57.837 C 26.760 57.881,26.694 61.704,26.574 66.333 C 26.156 82.352,25.794 96.015,25.190 118.625 C 24.794 133.468,24.641 141.333,24.750 141.332 C 25.110 141.329,29.838 140.755,43.917 139.006 C 51.983 138.004,59.896 137.031,61.500 136.843 C 63.104 136.654,64.773 136.456,65.208 136.401 L 66.000 136.302 66.000 95.075 L 66.000 53.848 66.542 53.758 C 66.840 53.708,69.783 53.365,73.083 52.996 C 82.891 51.901,83.667 51.798,83.667 51.596 C 83.667 51.493,83.740 50.810,83.830 50.079 C 83.920 49.348,84.180 46.987,84.409 44.833 C 86.090 29.001,86.035 29.455,86.225 29.681 C 86.257 29.719,86.448 33.350,86.649 37.750 C 87.012 45.692,87.256 50.930,87.745 61.333 C 87.886 64.313,88.374 74.400,88.832 83.750 C 89.289 93.100,89.963 107.087,90.329 114.833 C 91.334 136.089,91.521 139.910,91.554 139.943 C 91.587 139.976,120.270 139.405,124.885 139.279 C 126.425 139.237,127.736 139.153,127.797 139.091 C 127.904 138.985,128.289 130.711,128.909 115.250 C 129.063 111.400,129.241 107.650,129.303 106.917 L 129.417 105.583 130.833 105.369 C 135.866 104.607,144.698 103.416,144.744 103.492 C 144.774 103.542,144.513 108.346,144.164 114.167 C 143.166 130.819,142.929 135.318,143.046 135.435 C 143.106 135.495,145.651 135.233,148.702 134.853 C 154.797 134.095,159.004 133.590,165.583 132.826 C 170.852 132.214,176.736 131.489,176.767 131.447 C 176.780 131.430,177.067 128.717,177.405 125.417 C 177.743 122.117,178.537 114.579,179.169 108.667 C 179.802 102.754,180.663 94.542,181.082 90.417 C 181.502 86.292,182.403 77.704,183.084 71.333 C 183.766 64.962,184.703 56.038,185.167 51.500 C 186.121 42.170,188.446 20.255,188.586 19.267 L 188.678 18.618 186.464 18.729 C 185.246 18.790,179.412 19.062,173.500 19.334 C 150.205 20.404,147.246 20.552,147.139 20.649 C 147.008 20.767,146.906 23.434,145.981 50.833 C 145.599 62.154,145.235 71.476,145.171 71.547 C 145.062 71.671,123.640 73.362,123.534 73.256 C 123.507 73.229,123.749 70.479,124.072 67.145 C 124.395 63.811,124.851 58.983,125.085 56.417 C 125.473 52.160,126.995 36.342,128.154 24.500 C 128.410 21.887,128.574 19.705,128.518 19.651 C 128.462 19.596,121.742 20.208,113.583 21.012 C 95.929 22.751,86.863 23.588,86.777 23.489 C 86.742 23.449,86.876 21.973,87.074 20.208 L 87.433 17.000 87.092 17.022 C 86.904 17.035,84.837 17.220,82.500 17.435 M340.659 56.488 C 352.671 59.642,356.424 75.829,348.765 91.443 C 344.695 99.739,340.335 104.493,334.111 107.420 C 317.128 115.404,304.867 103.788,308.424 83.083 C 311.336 66.129,327.281 52.974,340.659 56.488 " stroke="none" fill="#fbfbfb" fill-rule="evenodd"></path><path id="path2" d="M343.708 15.623 C 344.235 15.656,345.098 15.656,345.625 15.623 C 346.152 15.590,345.721 15.563,344.667 15.563 C 343.613 15.563,343.181 15.590,343.708 15.623 M68.542 18.615 C 68.702 18.657,68.965 18.657,69.125 18.615 C 69.285 18.573,69.154 18.539,68.833 18.539 C 68.512 18.539,68.381 18.573,68.542 18.615 M184.708 18.786 C 184.960 18.824,185.373 18.824,185.625 18.786 C 185.877 18.748,185.671 18.717,185.167 18.717 C 184.662 18.717,184.456 18.748,184.708 18.786 M181.375 18.953 C 181.627 18.991,182.040 18.991,182.292 18.953 C 182.544 18.915,182.338 18.883,181.833 18.883 C 181.329 18.883,181.123 18.915,181.375 18.953 M177.711 19.120 C 177.964 19.158,178.339 19.157,178.544 19.117 C 178.749 19.078,178.542 19.046,178.083 19.048 C 177.625 19.049,177.457 19.081,177.711 19.120 M174.044 19.286 C 174.297 19.325,174.672 19.324,174.877 19.284 C 175.082 19.244,174.875 19.213,174.417 19.214 C 173.958 19.216,173.791 19.248,174.044 19.286 M170.625 19.451 C 170.831 19.491,171.169 19.491,171.375 19.451 C 171.581 19.411,171.412 19.379,171.000 19.379 C 170.587 19.379,170.419 19.411,170.625 19.451 M167.127 19.618 C 167.334 19.658,167.634 19.656,167.794 19.615 C 167.953 19.573,167.783 19.540,167.417 19.542 C 167.050 19.544,166.920 19.578,167.127 19.618 M163.460 19.785 C 163.668 19.824,163.968 19.823,164.127 19.781 C 164.286 19.739,164.117 19.707,163.750 19.709 C 163.383 19.711,163.253 19.745,163.460 19.785 M160.127 19.951 C 160.334 19.991,160.634 19.990,160.794 19.948 C 160.953 19.906,160.783 19.874,160.417 19.875 C 160.050 19.877,159.920 19.911,160.127 19.951 M156.542 20.115 C 156.702 20.157,156.965 20.157,157.125 20.115 C 157.285 20.073,157.154 20.039,156.833 20.039 C 156.512 20.039,156.381 20.073,156.542 20.115 M153.042 20.282 C 153.202 20.323,153.465 20.323,153.625 20.282 C 153.785 20.240,153.654 20.205,153.333 20.205 C 153.012 20.205,152.881 20.240,153.042 20.282 M149.708 20.448 C 149.869 20.490,150.131 20.490,150.292 20.448 C 150.452 20.406,150.321 20.372,150.000 20.372 C 149.679 20.372,149.548 20.406,149.708 20.448 M146.888 22.417 C 146.889 23.058,146.919 23.300,146.955 22.955 C 146.991 22.609,146.990 22.084,146.954 21.788 C 146.917 21.492,146.887 21.775,146.888 22.417 M239.042 22.282 C 239.202 22.323,239.465 22.323,239.625 22.282 C 239.785 22.240,239.654 22.205,239.333 22.205 C 239.012 22.205,238.881 22.240,239.042 22.282 M236.875 22.448 C 237.035 22.490,237.298 22.490,237.458 22.448 C 237.619 22.406,237.487 22.372,237.167 22.372 C 236.846 22.372,236.715 22.406,236.875 22.448 M234.542 22.615 C 234.702 22.657,234.965 22.657,235.125 22.615 C 235.285 22.573,235.154 22.539,234.833 22.539 C 234.512 22.539,234.381 22.573,234.542 22.615 M19.542 22.782 C 19.702 22.823,19.965 22.823,20.125 22.782 C 20.285 22.740,20.154 22.705,19.833 22.705 C 19.512 22.705,19.381 22.740,19.542 22.782 M232.127 22.785 C 232.334 22.824,232.634 22.823,232.794 22.781 C 232.953 22.739,232.783 22.707,232.417 22.709 C 232.050 22.711,231.920 22.745,232.127 22.785 M229.960 22.951 C 230.168 22.991,230.468 22.990,230.627 22.948 C 230.786 22.906,230.617 22.874,230.250 22.875 C 229.883 22.877,229.753 22.911,229.960 22.951 M227.542 23.115 C 227.702 23.157,227.965 23.157,228.125 23.115 C 228.285 23.073,228.154 23.039,227.833 23.039 C 227.512 23.039,227.381 23.073,227.542 23.115 M225.208 23.282 C 225.369 23.323,225.631 23.323,225.792 23.282 C 225.952 23.240,225.821 23.205,225.500 23.205 C 225.179 23.205,225.048 23.240,225.208 23.282 M8.383 24.667 C 8.383 25.171,8.415 25.377,8.453 25.125 C 8.491 24.873,8.491 24.460,8.453 24.208 C 8.415 23.956,8.383 24.162,8.383 24.667 M194.733 28.000 C 194.733 29.329,194.759 29.873,194.790 29.208 C 194.822 28.544,194.822 27.456,194.790 26.792 C 194.759 26.127,194.733 26.671,194.733 28.000 M146.721 27.083 C 146.722 27.725,146.752 27.967,146.788 27.621 C 146.824 27.275,146.824 26.750,146.787 26.455 C 146.750 26.159,146.721 26.442,146.721 27.083 M8.217 30.333 C 8.217 30.837,8.248 31.044,8.286 30.792 C 8.324 30.540,8.324 30.127,8.286 29.875 C 8.248 29.623,8.217 29.829,8.217 30.333 M86.017 29.875 C 86.073 30.580,86.301 30.896,86.317 30.292 C 86.326 29.948,86.258 29.667,86.167 29.667 C 86.075 29.667,86.007 29.760,86.017 29.875 M379.500 30.219 C 379.500 30.248,379.744 30.491,380.042 30.760 L 380.583 31.250 380.094 30.708 C 379.638 30.203,379.500 30.090,379.500 30.219 M146.555 32.250 C 146.555 32.892,146.586 33.134,146.622 32.788 C 146.658 32.442,146.657 31.917,146.620 31.621 C 146.583 31.325,146.554 31.608,146.555 32.250 M86.379 33.500 C 86.379 33.912,86.411 34.081,86.451 33.875 C 86.491 33.669,86.491 33.331,86.451 33.125 C 86.411 32.919,86.379 33.087,86.379 33.500 M8.050 36.000 C 8.050 36.504,8.081 36.710,8.119 36.458 C 8.158 36.206,8.158 35.794,8.119 35.542 C 8.081 35.290,8.050 35.496,8.050 36.000 M86.548 37.083 C 86.549 37.542,86.581 37.709,86.620 37.456 C 86.658 37.203,86.657 36.828,86.617 36.623 C 86.578 36.418,86.546 36.625,86.548 37.083 M146.385 37.417 C 146.386 37.967,146.417 38.172,146.454 37.872 C 146.491 37.572,146.490 37.122,146.452 36.872 C 146.414 36.622,146.384 36.867,146.385 37.417 M294.745 37.542 L 293.750 38.583 294.792 37.589 C 295.759 36.664,295.910 36.500,295.786 36.500 C 295.761 36.500,295.292 36.969,294.745 37.542 M194.906 43.833 C 194.906 46.354,194.930 47.385,194.958 46.125 C 194.986 44.865,194.986 42.802,194.958 41.542 C 194.930 40.281,194.906 41.313,194.906 43.833 M86.717 40.833 C 86.717 41.337,86.748 41.544,86.786 41.292 C 86.824 41.040,86.824 40.627,86.786 40.375 C 86.748 40.123,86.717 40.329,86.717 40.833 M7.883 42.000 C 7.883 42.504,7.915 42.710,7.953 42.458 C 7.991 42.206,7.991 41.794,7.953 41.542 C 7.915 41.290,7.883 41.496,7.883 42.000 M146.218 42.083 C 146.219 42.633,146.250 42.838,146.287 42.539 C 146.325 42.239,146.324 41.789,146.286 41.539 C 146.248 41.288,146.217 41.533,146.218 42.083 M86.883 44.167 C 86.883 44.671,86.915 44.877,86.953 44.625 C 86.991 44.373,86.991 43.960,86.953 43.708 C 86.915 43.456,86.883 43.663,86.883 44.167 M146.053 47.000 C 146.053 47.596,146.084 47.840,146.121 47.542 C 146.158 47.244,146.158 46.756,146.121 46.458 C 146.084 46.160,146.053 46.404,146.053 47.000 M7.718 47.583 C 7.719 48.133,7.750 48.338,7.787 48.039 C 7.825 47.739,7.824 47.289,7.786 47.039 C 7.748 46.788,7.717 47.033,7.718 47.583 M87.048 47.917 C 87.049 48.375,87.081 48.543,87.120 48.289 C 87.158 48.036,87.157 47.661,87.117 47.456 C 87.078 47.251,87.046 47.458,87.048 47.917 M87.214 51.583 C 87.216 52.042,87.248 52.209,87.286 51.956 C 87.325 51.703,87.324 51.328,87.284 51.123 C 87.244 50.918,87.213 51.125,87.214 51.583 M145.885 51.917 C 145.886 52.467,145.917 52.672,145.954 52.372 C 145.991 52.072,145.990 51.622,145.952 51.372 C 145.914 51.122,145.884 51.367,145.885 51.917 M7.553 53.667 C 7.553 54.262,7.584 54.506,7.621 54.208 C 7.658 53.910,7.658 53.423,7.621 53.125 C 7.584 52.827,7.553 53.071,7.553 53.667 M66.082 95.083 C 66.082 117.817,66.101 127.092,66.125 115.695 C 66.149 104.298,66.149 85.698,66.125 74.362 C 66.101 63.025,66.082 72.350,66.082 95.083 M87.381 54.917 C 87.382 55.375,87.415 55.543,87.453 55.289 C 87.491 55.036,87.490 54.661,87.451 54.456 C 87.411 54.251,87.380 54.458,87.381 54.917 M145.718 56.583 C 145.719 57.133,145.750 57.338,145.787 57.039 C 145.825 56.739,145.824 56.289,145.786 56.039 C 145.748 55.788,145.717 56.033,145.718 56.583 M266.792 56.784 C 266.998 56.824,267.335 56.824,267.542 56.784 C 267.748 56.745,267.579 56.712,267.167 56.712 C 266.754 56.712,266.585 56.745,266.792 56.784 M263.211 56.953 C 263.464 56.991,263.839 56.990,264.044 56.951 C 264.249 56.911,264.042 56.880,263.583 56.881 C 263.125 56.882,262.957 56.915,263.211 56.953 M259.042 57.119 C 259.294 57.158,259.706 57.158,259.958 57.119 C 260.210 57.081,260.004 57.050,259.500 57.050 C 258.996 57.050,258.790 57.081,259.042 57.119 M255.042 57.286 C 255.294 57.324,255.706 57.324,255.958 57.286 C 256.210 57.248,256.004 57.217,255.500 57.217 C 254.996 57.217,254.790 57.248,255.042 57.286 M251.375 57.453 C 251.627 57.491,252.040 57.491,252.292 57.453 C 252.544 57.415,252.338 57.383,251.833 57.383 C 251.329 57.383,251.123 57.415,251.375 57.453 M247.375 57.619 C 247.627 57.658,248.040 57.658,248.292 57.619 C 248.544 57.581,248.338 57.550,247.833 57.550 C 247.329 57.550,247.123 57.581,247.375 57.619 M243.377 57.786 C 243.631 57.825,244.006 57.824,244.211 57.784 C 244.416 57.744,244.208 57.713,243.750 57.714 C 243.292 57.716,243.124 57.748,243.377 57.786 M26.712 58.500 C 26.712 58.913,26.745 59.081,26.784 58.875 C 26.824 58.669,26.824 58.331,26.784 58.125 C 26.745 57.919,26.712 58.087,26.712 58.500 M239.711 57.953 C 239.964 57.991,240.339 57.990,240.544 57.951 C 240.749 57.911,240.542 57.880,240.083 57.881 C 239.625 57.882,239.457 57.915,239.711 57.953 M87.542 58.583 C 87.544 58.950,87.578 59.080,87.618 58.873 C 87.658 58.666,87.656 58.366,87.615 58.206 C 87.573 58.047,87.540 58.217,87.542 58.583 M235.877 58.120 C 236.131 58.158,236.506 58.157,236.711 58.117 C 236.916 58.078,236.708 58.046,236.250 58.048 C 235.792 58.049,235.624 58.081,235.877 58.120 M7.372 59.167 C 7.372 59.487,7.406 59.619,7.448 59.458 C 7.490 59.298,7.490 59.035,7.448 58.875 C 7.406 58.715,7.372 58.846,7.372 59.167 M195.072 63.417 C 195.072 65.617,195.096 66.494,195.125 65.365 C 195.153 64.237,195.153 62.437,195.124 61.365 C 195.095 60.294,195.072 61.217,195.072 63.417 M145.552 61.417 C 145.553 61.967,145.584 62.172,145.621 61.872 C 145.658 61.572,145.657 61.122,145.619 60.872 C 145.581 60.622,145.551 60.867,145.552 61.417 M87.705 62.167 C 87.705 62.487,87.740 62.619,87.782 62.458 C 87.823 62.298,87.823 62.035,87.782 61.875 C 87.740 61.715,87.705 61.846,87.705 62.167 M26.559 64.583 C 26.559 65.408,26.587 65.767,26.622 65.380 C 26.657 64.993,26.657 64.318,26.623 63.880 C 26.588 63.442,26.560 63.758,26.559 64.583 M234.069 64.167 C 234.082 65.128,234.121 65.252,234.417 65.266 C 234.655 65.278,234.669 65.263,234.466 65.214 C 234.246 65.161,234.168 64.914,234.119 64.114 L 234.055 63.083 234.069 64.167 M259.542 63.448 C 259.702 63.490,259.965 63.490,260.125 63.448 C 260.285 63.406,260.154 63.372,259.833 63.372 C 259.512 63.372,259.381 63.406,259.542 63.448 M87.872 65.500 C 87.872 65.821,87.906 65.952,87.948 65.792 C 87.990 65.631,87.990 65.369,87.948 65.208 C 87.906 65.048,87.872 65.179,87.872 65.500 M145.383 66.333 C 145.383 66.837,145.415 67.044,145.453 66.792 C 145.491 66.540,145.491 66.127,145.453 65.875 C 145.415 65.623,145.383 65.829,145.383 66.333 M392.705 66.833 C 392.705 67.154,392.740 67.285,392.782 67.125 C 392.823 66.965,392.823 66.702,392.782 66.542 C 392.740 66.381,392.705 66.512,392.705 66.833 M88.039 69.000 C 88.039 69.321,88.073 69.452,88.115 69.292 C 88.157 69.131,88.157 68.869,88.115 68.708 C 88.073 68.548,88.039 68.679,88.039 69.000 M392.898 71.500 C 392.898 72.646,392.924 73.115,392.957 72.542 C 392.989 71.969,392.989 71.031,392.957 70.458 C 392.924 69.885,392.898 70.354,392.898 71.500 M145.214 70.750 C 145.216 71.208,145.248 71.376,145.286 71.123 C 145.325 70.869,145.324 70.494,145.284 70.289 C 145.244 70.084,145.213 70.292,145.214 70.750 M26.389 71.333 C 26.389 72.021,26.419 72.302,26.455 71.958 C 26.491 71.615,26.491 71.052,26.455 70.708 C 26.419 70.365,26.389 70.646,26.389 71.333 M88.205 72.500 C 88.205 72.821,88.240 72.952,88.282 72.792 C 88.323 72.631,88.323 72.369,88.282 72.208 C 88.240 72.048,88.205 72.179,88.205 72.500 M352.705 73.833 C 352.705 74.154,352.740 74.285,352.782 74.125 C 352.823 73.965,352.823 73.702,352.782 73.542 C 352.740 73.381,352.705 73.512,352.705 73.833 M88.372 75.833 C 88.372 76.154,88.406 76.285,88.448 76.125 C 88.490 75.965,88.490 75.702,88.448 75.542 C 88.406 75.381,88.372 75.512,88.372 75.833 M392.709 76.417 C 392.711 76.783,392.745 76.914,392.785 76.706 C 392.824 76.499,392.823 76.199,392.781 76.040 C 392.739 75.880,392.707 76.050,392.709 76.417 M26.223 77.333 C 26.223 78.021,26.252 78.302,26.288 77.958 C 26.324 77.615,26.324 77.052,26.288 76.708 C 26.252 76.365,26.223 76.646,26.223 77.333 M352.705 76.833 C 352.705 77.154,352.740 77.285,352.782 77.125 C 352.823 76.965,352.823 76.702,352.782 76.542 C 352.740 76.381,352.705 76.512,352.705 76.833 M88.542 79.250 C 88.544 79.617,88.578 79.747,88.618 79.540 C 88.658 79.332,88.656 79.032,88.615 78.873 C 88.573 78.714,88.540 78.883,88.542 79.250 M195.237 82.917 C 195.237 84.842,195.262 85.606,195.291 84.616 C 195.321 83.626,195.321 82.051,195.291 81.116 C 195.261 80.181,195.237 80.992,195.237 82.917 M88.709 82.750 C 88.711 83.117,88.745 83.247,88.785 83.040 C 88.824 82.832,88.823 82.532,88.781 82.373 C 88.739 82.214,88.707 82.383,88.709 82.750 M26.056 83.833 C 26.056 84.521,26.085 84.802,26.121 84.458 C 26.157 84.115,26.157 83.552,26.121 83.208 C 26.085 82.865,26.056 83.146,26.056 83.833 M272.372 84.167 C 272.372 84.487,272.406 84.619,272.448 84.458 C 272.490 84.298,272.490 84.035,272.448 83.875 C 272.406 83.715,272.372 83.846,272.372 84.167 M88.875 86.083 C 88.877 86.450,88.911 86.580,88.951 86.373 C 88.991 86.166,88.990 85.866,88.948 85.706 C 88.906 85.547,88.874 85.717,88.875 86.083 M307.896 90.083 C 307.896 91.092,307.924 91.483,307.957 90.952 C 307.990 90.422,307.990 89.597,307.956 89.119 C 307.922 88.641,307.895 89.075,307.896 90.083 M89.045 89.500 C 89.045 89.912,89.078 90.081,89.118 89.875 C 89.157 89.669,89.157 89.331,89.118 89.125 C 89.078 88.919,89.045 89.087,89.045 89.500 M25.890 90.250 C 25.891 90.983,25.920 91.263,25.956 90.871 C 25.991 90.479,25.990 89.879,25.954 89.537 C 25.919 89.196,25.890 89.517,25.890 90.250 M255.875 89.115 C 256.035 89.157,256.298 89.157,256.458 89.115 C 256.619 89.073,256.487 89.039,256.167 89.039 C 255.846 89.039,255.715 89.073,255.875 89.115 M253.542 89.282 C 253.702 89.323,253.965 89.323,254.125 89.282 C 254.285 89.240,254.154 89.205,253.833 89.205 C 253.512 89.205,253.381 89.240,253.542 89.282 M251.542 89.448 C 251.702 89.490,251.965 89.490,252.125 89.448 C 252.285 89.406,252.154 89.372,251.833 89.372 C 251.512 89.372,251.381 89.406,251.542 89.448 M249.208 89.615 C 249.369 89.657,249.631 89.657,249.792 89.615 C 249.952 89.573,249.821 89.539,249.500 89.539 C 249.179 89.539,249.048 89.573,249.208 89.615 M89.212 93.000 C 89.212 93.412,89.245 93.581,89.284 93.375 C 89.324 93.169,89.324 92.831,89.284 92.625 C 89.245 92.419,89.212 92.587,89.212 93.000 M233.053 94.500 C 233.053 95.096,233.084 95.340,233.121 95.042 C 233.158 94.744,233.158 94.256,233.121 93.958 C 233.084 93.660,233.053 93.904,233.053 94.500 M25.724 96.417 C 25.724 97.150,25.754 97.429,25.789 97.037 C 25.824 96.645,25.824 96.045,25.788 95.704 C 25.752 95.363,25.723 95.683,25.724 96.417 M89.379 96.333 C 89.379 96.746,89.411 96.915,89.451 96.708 C 89.491 96.502,89.491 96.165,89.451 95.958 C 89.411 95.752,89.379 95.921,89.379 96.333 M195.404 100.750 C 195.404 102.675,195.428 103.440,195.458 102.449 C 195.487 101.459,195.487 99.884,195.458 98.949 C 195.428 98.015,195.404 98.825,195.404 100.750 M89.545 99.833 C 89.545 100.246,89.578 100.415,89.618 100.208 C 89.657 100.002,89.657 99.665,89.618 99.458 C 89.578 99.252,89.545 99.421,89.545 99.833 M25.557 102.750 C 25.558 103.483,25.587 103.763,25.622 103.371 C 25.657 102.979,25.657 102.379,25.621 102.037 C 25.585 101.696,25.557 102.017,25.557 102.750 M340.906 102.708 L 340.417 103.250 340.958 102.760 C 341.463 102.304,341.577 102.167,341.448 102.167 C 341.419 102.167,341.175 102.410,340.906 102.708 M89.712 103.333 C 89.712 103.746,89.745 103.915,89.784 103.708 C 89.824 103.502,89.824 103.165,89.784 102.958 C 89.745 102.752,89.712 102.921,89.712 103.333 M144.647 103.870 C 144.724 104.333,144.747 104.356,144.800 104.022 C 144.834 103.806,144.793 103.560,144.709 103.476 C 144.616 103.383,144.592 103.539,144.647 103.870 M274.523 106.342 L 274.547 107.417 274.665 106.500 C 274.730 105.996,274.720 105.512,274.642 105.425 C 274.562 105.336,274.510 105.739,274.523 106.342 M89.879 106.667 C 89.879 107.079,89.911 107.248,89.951 107.042 C 89.991 106.835,89.991 106.498,89.951 106.292 C 89.911 106.085,89.879 106.254,89.879 106.667 M144.539 106.667 C 144.539 106.987,144.573 107.119,144.615 106.958 C 144.657 106.798,144.657 106.535,144.615 106.375 C 144.573 106.215,144.539 106.346,144.539 106.667 M129.217 108.167 C 129.217 108.671,129.248 108.877,129.286 108.625 C 129.324 108.373,129.324 107.960,129.286 107.708 C 129.248 107.456,129.217 107.662,129.217 108.167 M25.388 109.083 C 25.389 109.725,25.419 109.967,25.455 109.621 C 25.491 109.275,25.490 108.750,25.454 108.455 C 25.417 108.159,25.387 108.442,25.388 109.083 M90.045 110.167 C 90.045 110.579,90.078 110.748,90.118 110.542 C 90.157 110.335,90.157 109.998,90.118 109.792 C 90.078 109.585,90.045 109.754,90.045 110.167 M129.050 112.333 C 129.050 112.837,129.081 113.044,129.119 112.792 C 129.158 112.540,129.158 112.127,129.119 111.875 C 129.081 111.623,129.050 111.829,129.050 112.333 M144.205 112.167 C 144.205 112.487,144.240 112.619,144.282 112.458 C 144.323 112.298,144.323 112.035,144.282 111.875 C 144.240 111.715,144.205 111.846,144.205 112.167 M274.396 114.833 C 274.396 115.888,274.423 116.319,274.456 115.792 C 274.490 115.265,274.490 114.402,274.456 113.875 C 274.423 113.348,274.396 113.779,274.396 114.833 M90.212 113.833 C 90.212 114.246,90.245 114.415,90.284 114.208 C 90.324 114.002,90.324 113.665,90.284 113.458 C 90.245 113.252,90.212 113.421,90.212 113.833 M25.223 115.167 C 25.223 115.854,25.252 116.135,25.288 115.792 C 25.324 115.448,25.324 114.885,25.288 114.542 C 25.252 114.198,25.223 114.479,25.223 115.167 M128.881 116.250 C 128.882 116.708,128.915 116.876,128.953 116.623 C 128.991 116.369,128.990 115.994,128.951 115.789 C 128.911 115.584,128.880 115.792,128.881 116.250 M195.570 119.667 C 195.570 121.546,195.595 122.315,195.624 121.375 C 195.654 120.435,195.654 118.898,195.624 117.958 C 195.595 117.019,195.570 117.787,195.570 119.667 M90.379 117.167 C 90.379 117.579,90.411 117.748,90.451 117.542 C 90.491 117.335,90.491 116.998,90.451 116.792 C 90.411 116.585,90.379 116.754,90.379 117.167 M128.714 119.917 C 128.716 120.375,128.748 120.543,128.786 120.289 C 128.825 120.036,128.824 119.661,128.784 119.456 C 128.744 119.251,128.713 119.458,128.714 119.917 M90.548 120.750 C 90.549 121.208,90.581 121.376,90.620 121.123 C 90.658 120.869,90.657 120.494,90.617 120.289 C 90.578 120.084,90.546 120.292,90.548 120.750 M143.705 120.500 C 143.705 120.821,143.740 120.952,143.782 120.792 C 143.823 120.631,143.823 120.369,143.782 120.208 C 143.740 120.048,143.705 120.179,143.705 120.500 M25.055 121.583 C 25.055 122.225,25.086 122.467,25.122 122.121 C 25.158 121.775,25.157 121.250,25.120 120.955 C 25.083 120.659,25.054 120.942,25.055 121.583 M274.230 123.667 C 274.230 124.721,274.257 125.152,274.290 124.625 C 274.323 124.098,274.323 123.235,274.290 122.708 C 274.257 122.181,274.230 122.612,274.230 123.667 M128.545 124.000 C 128.545 124.412,128.578 124.581,128.618 124.375 C 128.657 124.169,128.657 123.831,128.618 123.625 C 128.578 123.419,128.545 123.587,128.545 124.000 M90.717 124.500 C 90.717 125.004,90.748 125.210,90.786 124.958 C 90.824 124.706,90.824 124.294,90.786 124.042 C 90.748 123.790,90.717 123.996,90.717 124.500 M370.578 125.875 L 369.583 126.917 370.625 125.922 C 371.198 125.375,371.667 124.906,371.667 124.880 C 371.667 124.757,371.502 124.907,370.578 125.875 M143.375 126.417 C 143.377 126.783,143.411 126.914,143.451 126.706 C 143.491 126.499,143.490 126.199,143.448 126.040 C 143.406 125.880,143.374 126.050,143.375 126.417 M24.887 127.833 C 24.887 128.429,24.917 128.673,24.954 128.375 C 24.991 128.077,24.991 127.590,24.954 127.292 C 24.917 126.994,24.887 127.237,24.887 127.833 M90.883 127.833 C 90.883 128.337,90.915 128.544,90.953 128.292 C 90.991 128.040,90.991 127.627,90.953 127.375 C 90.915 127.123,90.883 127.329,90.883 127.833 M128.375 127.917 C 128.377 128.283,128.411 128.414,128.451 128.206 C 128.491 127.999,128.490 127.699,128.448 127.540 C 128.406 127.380,128.374 127.550,128.375 127.917 M287.160 129.042 C 287.568 129.477,287.925 129.833,287.951 129.833 C 288.077 129.833,287.944 129.684,287.208 128.993 L 286.417 128.250 287.160 129.042 M143.209 129.083 C 143.211 129.450,143.245 129.580,143.285 129.373 C 143.324 129.166,143.323 128.866,143.281 128.706 C 143.239 128.547,143.207 128.717,143.209 129.083 M288.333 130.219 C 288.333 130.248,288.577 130.491,288.875 130.760 L 289.417 131.250 288.927 130.708 C 288.471 130.203,288.333 130.090,288.333 130.219 M91.048 131.583 C 91.049 132.042,91.081 132.209,91.120 131.956 C 91.158 131.703,91.157 131.328,91.117 131.123 C 91.078 130.918,91.046 131.125,91.048 131.583 M128.209 131.583 C 128.211 131.950,128.245 132.080,128.285 131.873 C 128.324 131.666,128.323 131.366,128.281 131.206 C 128.239 131.047,128.207 131.217,128.209 131.583 M274.062 132.917 C 274.063 133.925,274.090 134.316,274.123 133.786 C 274.157 133.255,274.156 132.430,274.123 131.952 C 274.089 131.474,274.062 131.908,274.062 132.917 M143.045 132.000 C 143.045 132.412,143.078 132.581,143.118 132.375 C 143.157 132.169,143.157 131.831,143.118 131.625 C 143.078 131.419,143.045 131.587,143.045 132.000 M24.721 133.917 C 24.722 134.558,24.752 134.800,24.788 134.455 C 24.824 134.109,24.824 133.584,24.787 133.288 C 24.750 132.992,24.721 133.275,24.721 133.917 M142.833 134.907 C 142.833 135.222,142.891 135.516,142.961 135.559 C 143.032 135.603,143.061 135.345,143.027 134.986 C 142.950 134.180,142.833 134.132,142.833 134.907 M91.212 135.167 C 91.212 135.579,91.245 135.748,91.284 135.542 C 91.324 135.335,91.324 134.998,91.284 134.792 C 91.245 134.585,91.212 134.754,91.212 135.167 M128.039 135.500 C 128.039 135.821,128.073 135.952,128.115 135.792 C 128.157 135.631,128.157 135.369,128.115 135.208 C 128.073 135.048,128.039 135.179,128.039 135.500 M270.708 135.615 C 270.869 135.657,271.131 135.657,271.292 135.615 C 271.452 135.573,271.321 135.539,271.000 135.539 C 270.679 135.539,270.548 135.573,270.708 135.615 M264.708 135.948 C 264.869 135.990,265.131 135.990,265.292 135.948 C 265.452 135.906,265.321 135.872,265.000 135.872 C 264.679 135.872,264.548 135.906,264.708 135.948 M261.708 136.115 C 261.869 136.157,262.131 136.157,262.292 136.115 C 262.452 136.073,262.321 136.039,262.000 136.039 C 261.679 136.039,261.548 136.073,261.708 136.115 M258.542 136.282 C 258.702 136.323,258.965 136.323,259.125 136.282 C 259.285 136.240,259.154 136.205,258.833 136.205 C 258.512 136.205,258.381 136.240,258.542 136.282 M195.728 138.000 C 195.728 138.962,195.756 139.356,195.790 138.875 C 195.823 138.394,195.823 137.606,195.790 137.125 C 195.756 136.644,195.728 137.037,195.728 138.000 M252.460 136.618 C 252.668 136.658,252.968 136.656,253.127 136.615 C 253.286 136.573,253.117 136.540,252.750 136.542 C 252.383 136.544,252.253 136.578,252.460 136.618 M249.294 136.785 C 249.501 136.824,249.801 136.823,249.960 136.781 C 250.120 136.739,249.950 136.707,249.583 136.709 C 249.217 136.711,249.086 136.745,249.294 136.785 M246.294 136.951 C 246.501 136.991,246.801 136.990,246.960 136.948 C 247.120 136.906,246.950 136.874,246.583 136.875 C 246.217 136.877,246.086 136.911,246.294 136.951 M242.958 137.118 C 243.165 137.157,243.502 137.157,243.708 137.118 C 243.915 137.078,243.746 137.045,243.333 137.045 C 242.921 137.045,242.752 137.078,242.958 137.118 M239.711 137.286 C 239.964 137.325,240.339 137.324,240.544 137.284 C 240.749 137.244,240.542 137.213,240.083 137.214 C 239.625 137.216,239.457 137.248,239.711 137.286 M236.792 137.451 C 236.998 137.491,237.335 137.491,237.542 137.451 C 237.748 137.411,237.579 137.379,237.167 137.379 C 236.754 137.379,236.585 137.411,236.792 137.451 M233.458 137.618 C 233.665 137.657,234.002 137.657,234.208 137.618 C 234.415 137.578,234.246 137.545,233.833 137.545 C 233.421 137.545,233.252 137.578,233.458 137.618 M230.294 137.785 C 230.501 137.824,230.801 137.823,230.960 137.781 C 231.120 137.739,230.950 137.707,230.583 137.709 C 230.217 137.711,230.086 137.745,230.294 137.785 M91.381 138.583 C 91.382 139.042,91.415 139.209,91.453 138.956 C 91.491 138.703,91.490 138.328,91.451 138.123 C 91.411 137.918,91.380 138.125,91.381 138.583 M227.294 137.951 C 227.501 137.991,227.801 137.990,227.960 137.948 C 228.120 137.906,227.950 137.874,227.583 137.875 C 227.217 137.877,227.086 137.911,227.294 137.951 M224.294 138.118 C 224.501 138.158,224.801 138.156,224.960 138.115 C 225.120 138.073,224.950 138.040,224.583 138.042 C 224.217 138.044,224.086 138.078,224.294 138.118 M221.127 138.285 C 221.334 138.324,221.634 138.323,221.794 138.281 C 221.953 138.239,221.783 138.207,221.417 138.209 C 221.050 138.211,220.920 138.245,221.127 138.285 M218.125 138.451 C 218.331 138.491,218.669 138.491,218.875 138.451 C 219.081 138.411,218.912 138.379,218.500 138.379 C 218.088 138.379,217.919 138.411,218.125 138.451 M215.127 138.618 C 215.334 138.658,215.634 138.656,215.794 138.615 C 215.953 138.573,215.783 138.540,215.417 138.542 C 215.050 138.544,214.920 138.578,215.127 138.618 M127.833 138.880 C 127.833 139.080,127.633 139.164,127.042 139.211 L 126.250 139.273 127.047 139.303 C 127.804 139.332,128.255 139.033,127.937 138.715 C 127.880 138.658,127.833 138.732,127.833 138.880 M212.042 138.782 C 212.202 138.823,212.465 138.823,212.625 138.782 C 212.785 138.740,212.654 138.705,212.333 138.705 C 212.012 138.705,211.881 138.740,212.042 138.782 M209.042 138.948 C 209.202 138.990,209.465 138.990,209.625 138.948 C 209.785 138.906,209.654 138.872,209.333 138.872 C 209.012 138.872,208.881 138.906,209.042 138.948 M206.042 139.115 C 206.202 139.157,206.465 139.157,206.625 139.115 C 206.785 139.073,206.654 139.039,206.333 139.039 C 206.012 139.039,205.881 139.073,206.042 139.115 M24.553 140.167 C 24.553 140.762,24.584 141.006,24.621 140.708 C 24.658 140.410,24.658 139.923,24.621 139.625 C 24.584 139.327,24.553 139.571,24.553 140.167 M203.042 139.282 C 203.202 139.323,203.465 139.323,203.625 139.282 C 203.785 139.240,203.654 139.205,203.333 139.205 C 203.012 139.205,202.881 139.240,203.042 139.282 M118.958 139.455 C 119.348 139.490,119.985 139.490,120.375 139.455 C 120.765 139.420,120.446 139.392,119.667 139.392 C 118.888 139.392,118.569 139.420,118.958 139.455 M200.042 139.448 C 200.202 139.490,200.465 139.490,200.625 139.448 C 200.785 139.406,200.654 139.372,200.333 139.372 C 200.012 139.372,199.881 139.406,200.042 139.448 M110.963 139.622 C 111.355 139.657,111.955 139.657,112.296 139.621 C 112.637 139.585,112.317 139.557,111.583 139.557 C 110.850 139.558,110.571 139.587,110.963 139.622 M102.629 139.789 C 103.021 139.824,103.621 139.824,103.963 139.788 C 104.304 139.752,103.983 139.723,103.250 139.724 C 102.517 139.724,102.237 139.754,102.629 139.789 M94.629 139.956 C 95.021 139.991,95.621 139.990,95.963 139.954 C 96.304 139.919,95.983 139.890,95.250 139.890 C 94.517 139.891,94.237 139.920,94.629 139.956 M327.542 143.948 C 327.702 143.990,327.965 143.990,328.125 143.948 C 328.285 143.906,328.154 143.872,327.833 143.872 C 327.512 143.872,327.381 143.906,327.542 143.948 " stroke="none" fill="#a0a0a0" fill-rule="evenodd"></path><path id="path3" d="M79.375 17.615 C 79.535 17.657,79.798 17.657,79.958 17.615 C 80.119 17.573,79.987 17.539,79.667 17.539 C 79.346 17.539,79.215 17.573,79.375 17.615 M77.294 17.785 C 77.501 17.824,77.801 17.823,77.960 17.781 C 78.120 17.739,77.950 17.707,77.583 17.709 C 77.217 17.711,77.086 17.745,77.294 17.785 M75.460 17.951 C 75.668 17.991,75.968 17.990,76.127 17.948 C 76.286 17.906,76.117 17.874,75.750 17.875 C 75.383 17.877,75.253 17.911,75.460 17.951 M73.375 18.115 C 73.535 18.157,73.798 18.157,73.958 18.115 C 74.119 18.073,73.987 18.039,73.667 18.039 C 73.346 18.039,73.215 18.073,73.375 18.115 M71.375 18.282 C 71.535 18.323,71.798 18.323,71.958 18.282 C 72.119 18.240,71.987 18.205,71.667 18.205 C 71.346 18.205,71.215 18.240,71.375 18.282 M186.544 18.620 C 186.797 18.658,187.172 18.657,187.377 18.617 C 187.582 18.578,187.375 18.546,186.917 18.548 C 186.458 18.549,186.291 18.581,186.544 18.620 M182.960 18.785 C 183.168 18.824,183.468 18.823,183.627 18.781 C 183.786 18.739,183.617 18.707,183.250 18.709 C 182.883 18.711,182.753 18.745,182.960 18.785 M179.627 18.951 C 179.834 18.991,180.134 18.990,180.294 18.948 C 180.453 18.906,180.283 18.874,179.917 18.875 C 179.550 18.877,179.420 18.911,179.627 18.951 M176.127 19.118 C 176.334 19.158,176.634 19.156,176.794 19.115 C 176.953 19.073,176.783 19.040,176.417 19.042 C 176.050 19.044,175.920 19.078,176.127 19.118 M169.208 19.448 C 169.369 19.490,169.631 19.490,169.792 19.448 C 169.952 19.406,169.821 19.372,169.500 19.372 C 169.179 19.372,169.048 19.406,169.208 19.448 M246.875 21.615 C 247.035 21.657,247.298 21.657,247.458 21.615 C 247.619 21.573,247.487 21.539,247.167 21.539 C 246.846 21.539,246.715 21.573,246.875 21.615 M30.375 21.782 C 30.535 21.823,30.798 21.823,30.958 21.782 C 31.119 21.740,30.988 21.705,30.667 21.705 C 30.346 21.705,30.215 21.740,30.375 21.782 M104.542 21.782 C 104.702 21.823,104.965 21.823,105.125 21.782 C 105.285 21.740,105.154 21.705,104.833 21.705 C 104.513 21.705,104.381 21.740,104.542 21.782 M244.458 21.784 C 244.665 21.824,245.002 21.824,245.208 21.784 C 245.415 21.745,245.246 21.712,244.833 21.712 C 244.421 21.712,244.252 21.745,244.458 21.784 M28.542 21.948 C 28.702 21.990,28.965 21.990,29.125 21.948 C 29.285 21.906,29.154 21.872,28.833 21.872 C 28.512 21.872,28.381 21.906,28.542 21.948 M102.875 21.948 C 103.035 21.990,103.298 21.990,103.458 21.948 C 103.619 21.906,103.487 21.872,103.167 21.872 C 102.846 21.872,102.715 21.906,102.875 21.948 M242.292 21.951 C 242.498 21.991,242.835 21.991,243.042 21.951 C 243.248 21.911,243.079 21.879,242.667 21.879 C 242.254 21.879,242.085 21.911,242.292 21.951 M26.460 22.118 C 26.668 22.158,26.968 22.156,27.127 22.115 C 27.286 22.073,27.117 22.040,26.750 22.042 C 26.383 22.044,26.253 22.078,26.460 22.118 M101.042 22.115 C 101.202 22.157,101.465 22.157,101.625 22.115 C 101.785 22.073,101.654 22.039,101.333 22.039 C 101.013 22.039,100.881 22.073,101.042 22.115 M239.958 22.118 C 240.165 22.157,240.502 22.157,240.708 22.118 C 240.915 22.078,240.746 22.045,240.333 22.045 C 239.921 22.045,239.752 22.078,239.958 22.118 M24.375 22.282 C 24.535 22.323,24.798 22.323,24.958 22.282 C 25.119 22.240,24.988 22.205,24.667 22.205 C 24.346 22.205,24.215 22.240,24.375 22.282 M237.708 22.282 C 237.869 22.323,238.131 22.323,238.292 22.282 C 238.452 22.240,238.321 22.205,238.000 22.205 C 237.679 22.205,237.548 22.240,237.708 22.282 M22.542 22.448 C 22.702 22.490,22.965 22.490,23.125 22.448 C 23.285 22.406,23.154 22.372,22.833 22.372 C 22.512 22.372,22.381 22.406,22.542 22.448 M235.542 22.448 C 235.702 22.490,235.965 22.490,236.125 22.448 C 236.285 22.406,236.154 22.372,235.833 22.372 C 235.512 22.372,235.381 22.406,235.542 22.448 M233.208 22.615 C 233.369 22.657,233.631 22.657,233.792 22.615 C 233.952 22.573,233.821 22.539,233.500 22.539 C 233.179 22.539,233.048 22.573,233.208 22.615 M146.717 24.500 C 146.717 25.004,146.748 25.210,146.786 24.958 C 146.824 24.706,146.824 24.294,146.786 24.042 C 146.748 23.790,146.717 23.996,146.717 24.500 M378.250 28.833 C 378.979 29.567,379.613 30.167,379.659 30.167 C 379.705 30.167,379.146 29.567,378.417 28.833 C 377.688 28.100,377.054 27.500,377.008 27.500 C 376.962 27.500,377.521 28.100,378.250 28.833 M8.209 28.417 C 8.211 28.783,8.245 28.914,8.285 28.706 C 8.324 28.499,8.323 28.199,8.281 28.040 C 8.239 27.880,8.207 28.050,8.209 28.417 M146.553 29.500 C 146.553 30.096,146.584 30.340,146.621 30.042 C 146.658 29.744,146.658 29.256,146.621 28.958 C 146.584 28.660,146.553 28.904,146.553 29.500 M86.217 32.167 C 86.217 32.671,86.248 32.877,86.286 32.625 C 86.324 32.373,86.324 31.960,86.286 31.708 C 86.248 31.456,86.217 31.662,86.217 32.167 M194.737 36.000 C 194.737 37.879,194.761 38.648,194.791 37.708 C 194.821 36.769,194.821 35.231,194.791 34.292 C 194.761 33.352,194.737 34.121,194.737 36.000 M146.389 34.500 C 146.389 35.188,146.419 35.469,146.455 35.125 C 146.491 34.781,146.491 34.219,146.455 33.875 C 146.419 33.531,146.389 33.813,146.389 34.500 M8.042 34.250 C 8.044 34.617,8.078 34.747,8.118 34.540 C 8.158 34.332,8.156 34.032,8.115 33.873 C 8.073 33.714,8.040 33.883,8.042 34.250 M86.383 35.500 C 86.383 36.004,86.415 36.210,86.453 35.958 C 86.491 35.706,86.491 35.294,86.453 35.042 C 86.415 34.790,86.383 34.996,86.383 35.500 M293.578 38.542 L 292.583 39.583 293.625 38.589 C 294.198 38.041,294.667 37.573,294.667 37.547 C 294.667 37.424,294.502 37.574,293.578 38.542 M146.223 39.167 C 146.223 39.854,146.252 40.135,146.288 39.792 C 146.324 39.448,146.324 38.885,146.288 38.542 C 146.252 38.198,146.223 38.479,146.223 39.167 M86.545 39.167 C 86.545 39.579,86.578 39.748,86.618 39.542 C 86.657 39.335,86.657 38.998,86.618 38.792 C 86.578 38.585,86.545 38.754,86.545 39.167 M7.879 40.000 C 7.879 40.412,7.911 40.581,7.951 40.375 C 7.991 40.169,7.991 39.831,7.951 39.625 C 7.911 39.419,7.879 39.587,7.879 40.000 M186.205 42.167 C 186.205 42.487,186.240 42.619,186.282 42.458 C 186.323 42.298,186.323 42.035,186.282 41.875 C 186.240 41.715,186.205 41.846,186.205 42.167 M86.709 42.750 C 86.711 43.117,86.745 43.247,86.785 43.040 C 86.824 42.832,86.823 42.532,86.781 42.373 C 86.739 42.214,86.707 42.383,86.709 42.750 M146.059 44.417 C 146.059 45.242,146.087 45.600,146.122 45.213 C 146.157 44.827,146.157 44.152,146.123 43.713 C 146.088 43.275,146.060 43.592,146.059 44.417 M186.039 43.833 C 186.039 44.154,186.073 44.285,186.115 44.125 C 186.157 43.965,186.157 43.702,186.115 43.542 C 186.073 43.381,186.039 43.512,186.039 43.833 M7.712 45.667 C 7.712 46.079,7.745 46.248,7.784 46.042 C 7.824 45.835,7.824 45.498,7.784 45.292 C 7.745 45.085,7.712 45.254,7.712 45.667 M86.875 46.083 C 86.877 46.450,86.911 46.580,86.951 46.373 C 86.991 46.166,86.990 45.866,86.948 45.706 C 86.906 45.547,86.874 45.717,86.875 46.083 M145.892 49.333 C 145.892 50.112,145.920 50.431,145.955 50.042 C 145.990 49.652,145.990 49.015,145.955 48.625 C 145.920 48.235,145.892 48.554,145.892 49.333 M87.042 49.583 C 87.044 49.950,87.078 50.080,87.118 49.873 C 87.158 49.666,87.156 49.366,87.115 49.206 C 87.073 49.047,87.040 49.217,87.042 49.583 M194.904 53.833 C 194.904 55.712,194.928 56.481,194.958 55.542 C 194.987 54.602,194.987 53.065,194.958 52.125 C 194.928 51.185,194.904 51.954,194.904 53.833 M7.545 51.333 C 7.545 51.746,7.578 51.915,7.618 51.708 C 7.657 51.502,7.657 51.165,7.618 50.958 C 7.578 50.752,7.545 50.921,7.545 51.333 M145.725 54.000 C 145.725 54.779,145.754 55.098,145.789 54.708 C 145.824 54.319,145.824 53.681,145.789 53.292 C 145.754 52.902,145.725 53.221,145.725 54.000 M7.381 57.250 C 7.382 57.708,7.415 57.876,7.453 57.623 C 7.491 57.369,7.490 56.994,7.451 56.789 C 7.411 56.584,7.380 56.792,7.381 57.250 M268.542 56.782 C 268.702 56.823,268.965 56.823,269.125 56.782 C 269.285 56.740,269.154 56.705,268.833 56.705 C 268.512 56.705,268.381 56.740,268.542 56.782 M264.875 56.948 C 265.035 56.990,265.298 56.990,265.458 56.948 C 265.619 56.906,265.487 56.872,265.167 56.872 C 264.846 56.872,264.715 56.906,264.875 56.948 M261.127 57.118 C 261.334 57.158,261.634 57.156,261.794 57.115 C 261.953 57.073,261.783 57.040,261.417 57.042 C 261.050 57.044,260.920 57.078,261.127 57.118 M257.125 57.284 C 257.331 57.324,257.669 57.324,257.875 57.284 C 258.081 57.245,257.912 57.212,257.500 57.212 C 257.087 57.212,256.919 57.245,257.125 57.284 M253.458 57.451 C 253.665 57.491,254.002 57.491,254.208 57.451 C 254.415 57.411,254.246 57.379,253.833 57.379 C 253.421 57.379,253.252 57.411,253.458 57.451 M249.542 57.619 C 249.794 57.658,250.206 57.658,250.458 57.619 C 250.710 57.581,250.504 57.550,250.000 57.550 C 249.496 57.550,249.290 57.581,249.542 57.619 M245.628 57.787 C 245.928 57.825,246.378 57.824,246.628 57.786 C 246.878 57.748,246.633 57.717,246.083 57.718 C 245.533 57.719,245.328 57.750,245.628 57.787 M241.961 57.954 C 242.261 57.991,242.711 57.990,242.961 57.952 C 243.212 57.914,242.967 57.884,242.417 57.885 C 241.867 57.886,241.662 57.917,241.961 57.954 M24.375 58.115 C 24.535 58.157,24.798 58.157,24.958 58.115 C 25.119 58.073,24.988 58.039,24.667 58.039 C 24.346 58.039,24.215 58.073,24.375 58.115 M145.555 59.083 C 145.555 59.725,145.586 59.967,145.622 59.621 C 145.658 59.275,145.657 58.750,145.620 58.455 C 145.583 58.159,145.554 58.442,145.555 59.083 M237.621 58.120 C 237.917 58.157,238.442 58.158,238.788 58.122 C 239.134 58.086,238.892 58.055,238.250 58.055 C 237.608 58.054,237.325 58.083,237.621 58.120 M22.542 58.282 C 22.702 58.323,22.965 58.323,23.125 58.282 C 23.285 58.240,23.154 58.205,22.833 58.205 C 22.512 58.205,22.381 58.240,22.542 58.282 M234.627 58.285 C 234.834 58.324,235.134 58.323,235.294 58.281 C 235.453 58.239,235.283 58.207,234.917 58.209 C 234.550 58.211,234.420 58.245,234.627 58.285 M234.232 60.833 C 234.232 62.071,234.258 62.577,234.290 61.958 C 234.322 61.340,234.322 60.327,234.290 59.708 C 234.258 59.090,234.232 59.596,234.232 60.833 M26.558 60.833 C 26.558 61.612,26.587 61.931,26.622 61.542 C 26.657 61.152,26.657 60.515,26.622 60.125 C 26.587 59.735,26.558 60.054,26.558 60.833 M318.162 64.292 L 317.083 65.417 318.208 64.338 C 318.827 63.745,319.333 63.239,319.333 63.213 C 319.333 63.090,319.164 63.247,318.162 64.292 M145.383 64.333 C 145.383 64.837,145.415 65.044,145.453 64.792 C 145.491 64.540,145.491 64.127,145.453 63.875 C 145.415 63.623,145.383 63.829,145.383 64.333 M26.393 67.500 C 26.393 68.371,26.422 68.727,26.456 68.292 C 26.490 67.856,26.490 67.144,26.456 66.708 C 26.422 66.273,26.393 66.629,26.393 67.500 M145.217 68.833 C 145.217 69.337,145.248 69.544,145.286 69.292 C 145.324 69.040,145.324 68.627,145.286 68.375 C 145.248 68.123,145.217 68.329,145.217 68.833 M392.875 68.583 C 392.877 68.950,392.911 69.080,392.951 68.873 C 392.991 68.666,392.990 68.366,392.948 68.206 C 392.906 68.047,392.874 68.217,392.875 68.583 M195.068 72.250 C 195.068 73.808,195.093 74.468,195.124 73.717 C 195.155 72.965,195.155 71.690,195.124 70.883 C 195.094 70.077,195.068 70.692,195.068 72.250 M26.228 73.583 C 26.228 74.500,26.256 74.854,26.290 74.369 C 26.324 73.885,26.323 73.135,26.289 72.703 C 26.255 72.270,26.227 72.667,26.228 73.583 M392.875 74.750 C 392.877 75.117,392.911 75.247,392.951 75.040 C 392.991 74.832,392.990 74.532,392.948 74.373 C 392.906 74.214,392.874 74.383,392.875 74.750 M26.064 80.417 C 26.064 81.517,26.091 81.945,26.124 81.368 C 26.156 80.792,26.156 79.892,26.123 79.368 C 26.090 78.845,26.063 79.317,26.064 80.417 M25.895 86.833 C 25.895 87.796,25.923 88.190,25.956 87.708 C 25.990 87.227,25.990 86.440,25.956 85.958 C 25.923 85.477,25.895 85.871,25.895 86.833 M272.220 87.833 C 272.220 88.429,272.250 88.673,272.287 88.375 C 272.324 88.077,272.324 87.590,272.287 87.292 C 272.250 86.994,272.220 87.237,272.220 87.833 M195.232 90.750 C 195.233 92.033,195.259 92.536,195.291 91.868 C 195.322 91.199,195.322 90.149,195.290 89.534 C 195.258 88.920,195.232 89.467,195.232 90.750 M248.208 89.782 C 248.369 89.823,248.631 89.823,248.792 89.782 C 248.952 89.740,248.821 89.705,248.500 89.705 C 248.179 89.705,248.048 89.740,248.208 89.782 M246.208 89.948 C 246.369 89.990,246.631 89.990,246.792 89.948 C 246.952 89.906,246.821 89.872,246.500 89.872 C 246.179 89.872,246.048 89.906,246.208 89.948 M243.960 90.118 C 244.168 90.158,244.468 90.156,244.627 90.115 C 244.786 90.073,244.617 90.040,244.250 90.042 C 243.883 90.044,243.753 90.078,243.960 90.118 M241.794 90.285 C 242.001 90.324,242.301 90.323,242.460 90.281 C 242.620 90.239,242.450 90.207,242.083 90.209 C 241.717 90.211,241.586 90.245,241.794 90.285 M239.627 90.451 C 239.834 90.491,240.134 90.490,240.294 90.448 C 240.453 90.406,240.283 90.374,239.917 90.375 C 239.550 90.377,239.420 90.411,239.627 90.451 M237.375 90.615 C 237.535 90.657,237.798 90.657,237.958 90.615 C 238.119 90.573,237.987 90.539,237.667 90.539 C 237.346 90.539,237.215 90.573,237.375 90.615 M25.729 92.917 C 25.729 93.925,25.757 94.316,25.790 93.786 C 25.823 93.255,25.823 92.430,25.789 91.952 C 25.756 91.474,25.729 91.908,25.729 92.917 M233.214 92.083 C 233.216 92.542,233.248 92.709,233.286 92.456 C 233.325 92.203,233.324 91.828,233.284 91.623 C 233.244 91.418,233.213 91.625,233.214 92.083 M89.209 94.417 C 89.211 94.783,89.245 94.914,89.285 94.706 C 89.324 94.499,89.323 94.199,89.281 94.040 C 89.239 93.880,89.207 94.050,89.209 94.417 M233.048 96.750 C 233.049 97.208,233.081 97.376,233.120 97.123 C 233.158 96.869,233.157 96.494,233.117 96.289 C 233.078 96.084,233.046 96.292,233.048 96.750 M89.375 97.750 C 89.377 98.117,89.411 98.247,89.451 98.040 C 89.491 97.832,89.490 97.532,89.448 97.373 C 89.406 97.214,89.374 97.383,89.375 97.750 M244.708 97.782 C 244.869 97.823,245.131 97.823,245.292 97.782 C 245.452 97.740,245.321 97.705,245.000 97.705 C 244.679 97.705,244.548 97.740,244.708 97.782 M243.042 97.948 C 243.202 97.990,243.465 97.990,243.625 97.948 C 243.785 97.906,243.654 97.872,243.333 97.872 C 243.012 97.872,242.881 97.906,243.042 97.948 M241.208 98.115 C 241.369 98.157,241.631 98.157,241.792 98.115 C 241.952 98.073,241.821 98.039,241.500 98.039 C 241.179 98.039,241.048 98.073,241.208 98.115 M25.560 99.667 C 25.560 100.537,25.588 100.894,25.623 100.458 C 25.657 100.023,25.657 99.310,25.623 98.875 C 25.588 98.440,25.560 98.796,25.560 99.667 M89.550 101.500 C 89.550 102.004,89.581 102.210,89.619 101.958 C 89.658 101.706,89.658 101.294,89.619 101.042 C 89.581 100.790,89.550 100.996,89.550 101.500 M89.720 105.167 C 89.720 105.763,89.750 106.006,89.787 105.708 C 89.824 105.410,89.824 104.923,89.787 104.625 C 89.750 104.327,89.720 104.571,89.720 105.167 M25.388 106.417 C 25.389 107.058,25.419 107.300,25.455 106.955 C 25.491 106.609,25.490 106.084,25.454 105.788 C 25.417 105.492,25.387 105.775,25.388 106.417 M129.381 106.583 C 129.382 107.042,129.415 107.209,129.453 106.956 C 129.491 106.703,129.490 106.328,129.451 106.123 C 129.411 105.918,129.380 106.125,129.381 106.583 M195.400 108.500 C 195.400 109.829,195.425 110.373,195.457 109.708 C 195.489 109.044,195.489 107.956,195.457 107.292 C 195.425 106.627,195.400 107.171,195.400 108.500 M89.887 108.500 C 89.887 109.096,89.917 109.340,89.954 109.042 C 89.991 108.744,89.991 108.256,89.954 107.958 C 89.917 107.660,89.887 107.904,89.887 108.500 M274.565 110.167 C 274.565 111.404,274.592 111.910,274.624 111.292 C 274.656 110.673,274.656 109.660,274.624 109.042 C 274.592 108.423,274.565 108.929,274.565 110.167 M129.214 110.250 C 129.216 110.708,129.248 110.876,129.286 110.623 C 129.325 110.369,129.324 109.994,129.284 109.789 C 129.244 109.584,129.213 109.792,129.214 110.250 M322.958 109.790 C 323.531 109.823,324.469 109.823,325.042 109.790 C 325.615 109.758,325.146 109.731,324.000 109.731 C 322.854 109.731,322.385 109.758,322.958 109.790 M90.053 112.167 C 90.053 112.763,90.084 113.006,90.121 112.708 C 90.158 112.410,90.158 111.923,90.121 111.625 C 90.084 111.327,90.053 111.571,90.053 112.167 M25.221 112.583 C 25.222 113.225,25.252 113.467,25.288 113.121 C 25.324 112.775,25.324 112.250,25.287 111.955 C 25.250 111.659,25.221 111.942,25.221 112.583 M129.042 114.083 C 129.044 114.450,129.078 114.580,129.118 114.373 C 129.158 114.166,129.156 113.866,129.115 113.706 C 129.073 113.547,129.040 113.717,129.042 114.083 M90.217 115.833 C 90.217 116.337,90.248 116.544,90.286 116.292 C 90.324 116.040,90.324 115.627,90.286 115.375 C 90.248 115.123,90.217 115.329,90.217 115.833 M274.400 119.667 C 274.400 121.087,274.426 121.669,274.457 120.958 C 274.488 120.248,274.488 119.085,274.457 118.375 C 274.426 117.665,274.400 118.246,274.400 119.667 M128.872 118.000 C 128.872 118.321,128.906 118.452,128.948 118.292 C 128.990 118.131,128.990 117.869,128.948 117.708 C 128.906 117.548,128.872 117.679,128.872 118.000 M90.383 119.167 C 90.383 119.671,90.415 119.877,90.453 119.625 C 90.491 119.373,90.491 118.960,90.453 118.708 C 90.415 118.456,90.383 118.662,90.383 119.167 M25.042 119.417 C 25.044 119.783,25.078 119.914,25.118 119.706 C 25.158 119.499,25.156 119.199,25.115 119.040 C 25.073 118.880,25.040 119.050,25.042 119.417 M178.039 120.000 C 178.039 120.321,178.073 120.452,178.115 120.292 C 178.157 120.131,178.157 119.869,178.115 119.708 C 178.073 119.548,178.039 119.679,178.039 120.000 M128.705 121.667 C 128.705 121.987,128.740 122.119,128.782 121.958 C 128.823 121.798,128.823 121.535,128.782 121.375 C 128.740 121.215,128.705 121.346,128.705 121.667 M90.545 122.833 C 90.545 123.246,90.578 123.415,90.618 123.208 C 90.657 123.002,90.657 122.665,90.618 122.458 C 90.578 122.252,90.545 122.421,90.545 122.833 M24.875 125.750 C 24.877 126.117,24.911 126.247,24.951 126.040 C 24.991 125.832,24.990 125.532,24.948 125.373 C 24.906 125.214,24.874 125.383,24.875 125.750 M195.565 127.333 C 195.565 128.571,195.592 129.077,195.624 128.458 C 195.656 127.840,195.656 126.827,195.624 126.208 C 195.592 125.590,195.565 126.096,195.565 127.333 M90.712 126.333 C 90.712 126.746,90.745 126.915,90.784 126.708 C 90.824 126.502,90.824 126.165,90.784 125.958 C 90.745 125.752,90.712 125.921,90.712 126.333 M369.744 126.875 L 368.917 127.750 369.792 126.923 C 370.273 126.468,370.667 126.074,370.667 126.048 C 370.667 125.924,370.512 126.062,369.744 126.875 M274.234 128.667 C 274.234 130.087,274.259 130.669,274.291 129.958 C 274.322 129.248,274.322 128.085,274.291 127.375 C 274.259 126.665,274.234 127.246,274.234 128.667 M90.875 129.750 C 90.877 130.117,90.911 130.247,90.951 130.040 C 90.991 129.832,90.990 129.532,90.948 129.373 C 90.906 129.214,90.874 129.383,90.875 129.750 M287.750 129.833 C 288.108 130.200,288.438 130.500,288.484 130.500 C 288.530 130.500,288.275 130.200,287.917 129.833 C 287.559 129.467,287.228 129.167,287.182 129.167 C 287.137 129.167,287.392 129.467,287.750 129.833 M143.039 130.667 C 143.039 130.987,143.073 131.119,143.115 130.958 C 143.157 130.798,143.157 130.535,143.115 130.375 C 143.073 130.215,143.039 130.346,143.039 130.667 M24.709 131.750 C 24.711 132.117,24.745 132.247,24.785 132.040 C 24.824 131.832,24.823 131.532,24.781 131.373 C 24.739 131.214,24.707 131.383,24.709 131.750 M91.042 133.250 C 91.044 133.617,91.078 133.747,91.118 133.540 C 91.158 133.332,91.156 133.032,91.115 132.873 C 91.073 132.714,91.040 132.883,91.042 133.250 M142.872 133.500 C 142.872 133.821,142.906 133.952,142.948 133.792 C 142.990 133.631,142.990 133.369,142.948 133.208 C 142.906 133.048,142.872 133.179,142.872 133.500 M244.542 137.115 C 244.702 137.157,244.965 137.157,245.125 137.115 C 245.285 137.073,245.154 137.039,244.833 137.039 C 244.512 137.039,244.381 137.073,244.542 137.115 M241.460 137.285 C 241.668 137.324,241.968 137.323,242.127 137.281 C 242.286 137.239,242.117 137.207,241.750 137.209 C 241.383 137.211,241.253 137.245,241.460 137.285 M238.542 137.448 C 238.702 137.490,238.965 137.490,239.125 137.448 C 239.285 137.406,239.154 137.372,238.833 137.372 C 238.512 137.372,238.381 137.406,238.542 137.448 M24.545 138.167 C 24.545 138.579,24.578 138.748,24.618 138.542 C 24.657 138.335,24.657 137.998,24.618 137.792 C 24.578 137.585,24.545 137.754,24.545 138.167 M235.292 137.618 C 235.498 137.657,235.835 137.657,236.042 137.618 C 236.248 137.578,236.079 137.545,235.667 137.545 C 235.254 137.545,235.085 137.578,235.292 137.618 M232.044 137.786 C 232.297 137.825,232.672 137.824,232.877 137.784 C 233.082 137.744,232.875 137.713,232.417 137.714 C 231.958 137.716,231.791 137.748,232.044 137.786 M229.042 137.953 C 229.294 137.991,229.706 137.991,229.958 137.953 C 230.210 137.915,230.004 137.883,229.500 137.883 C 228.996 137.883,228.790 137.915,229.042 137.953 M225.795 138.121 C 226.094 138.158,226.544 138.157,226.795 138.119 C 227.045 138.081,226.800 138.051,226.250 138.052 C 225.700 138.053,225.495 138.084,225.795 138.121 M222.542 138.286 C 222.794 138.324,223.206 138.324,223.458 138.286 C 223.710 138.248,223.504 138.217,223.000 138.217 C 222.496 138.217,222.290 138.248,222.542 138.286 M219.708 138.453 C 219.960 138.491,220.373 138.491,220.625 138.453 C 220.877 138.415,220.671 138.383,220.167 138.383 C 219.662 138.383,219.456 138.415,219.708 138.453 M216.544 138.620 C 216.797 138.658,217.172 138.657,217.377 138.617 C 217.582 138.578,217.375 138.546,216.917 138.548 C 216.458 138.549,216.291 138.581,216.544 138.620 M213.375 138.782 C 213.535 138.823,213.798 138.823,213.958 138.782 C 214.119 138.740,213.987 138.705,213.667 138.705 C 213.346 138.705,213.215 138.740,213.375 138.782 M210.375 138.948 C 210.535 138.990,210.798 138.990,210.958 138.948 C 211.119 138.906,210.987 138.872,210.667 138.872 C 210.346 138.872,210.215 138.906,210.375 138.948 M122.042 139.453 C 122.294 139.491,122.706 139.491,122.958 139.453 C 123.210 139.415,123.004 139.383,122.500 139.383 C 121.996 139.383,121.790 139.415,122.042 139.453 M113.711 139.620 C 113.964 139.658,114.339 139.657,114.544 139.617 C 114.749 139.578,114.542 139.546,114.083 139.548 C 113.625 139.549,113.457 139.581,113.711 139.620 M105.461 139.787 C 105.761 139.825,106.211 139.824,106.461 139.786 C 106.712 139.748,106.467 139.717,105.917 139.718 C 105.367 139.719,105.162 139.750,105.461 139.787 M97.461 139.954 C 97.761 139.991,98.211 139.990,98.461 139.952 C 98.712 139.914,98.467 139.884,97.917 139.885 C 97.367 139.886,97.162 139.917,97.461 139.954 " stroke="none" fill="#7c7c7c" fill-rule="evenodd"></path><path id="path4" d="M194.723 31.500 C 194.723 32.188,194.752 32.469,194.788 32.125 C 194.824 31.781,194.824 31.219,194.788 30.875 C 194.752 30.531,194.723 30.813,194.723 31.500 M194.888 49.417 C 194.889 50.058,194.919 50.300,194.955 49.955 C 194.991 49.609,194.990 49.084,194.954 48.788 C 194.917 48.492,194.887 48.775,194.888 49.417 M26.539 62.667 C 26.539 62.987,26.573 63.119,26.615 62.958 C 26.657 62.798,26.657 62.535,26.615 62.375 C 26.573 62.215,26.539 62.346,26.539 62.667 M195.055 68.417 C 195.055 69.058,195.086 69.300,195.122 68.955 C 195.158 68.609,195.157 68.084,195.120 67.788 C 195.083 67.492,195.054 67.775,195.055 68.417 M26.375 69.583 C 26.377 69.950,26.411 70.080,26.451 69.873 C 26.491 69.666,26.490 69.366,26.448 69.206 C 26.406 69.047,26.374 69.217,26.375 69.583 M26.205 75.667 C 26.205 75.987,26.240 76.119,26.282 75.958 C 26.323 75.798,26.323 75.535,26.282 75.375 C 26.240 75.215,26.205 75.346,26.205 75.667 M195.221 87.417 C 195.222 88.058,195.252 88.300,195.288 87.955 C 195.324 87.609,195.324 87.084,195.287 86.788 C 195.250 86.492,195.221 86.775,195.221 87.417 M195.387 105.167 C 195.387 105.763,195.417 106.006,195.454 105.708 C 195.491 105.410,195.491 104.923,195.454 104.625 C 195.417 104.327,195.387 104.571,195.387 105.167 M195.555 124.083 C 195.555 124.725,195.586 124.967,195.622 124.621 C 195.658 124.275,195.657 123.750,195.620 123.455 C 195.583 123.159,195.554 123.442,195.555 124.083 " stroke="none" fill="#848484" fill-rule="evenodd"></path></g></svg>